<svg width="117" height="13" viewBox="0 0 117 13" fill="none" xmlns="http://www.w3.org/2000/svg">
<path fill-rule="evenodd" clip-rule="evenodd" d="M98.2229 4.90987H91.6516V0H88.4375V12H91.6516V7.39585H98.2229V12H101.438V0H98.2229V4.90987Z" fill="#221E1F"/>
<path fill-rule="evenodd" clip-rule="evenodd" d="M113.223 0V4.90987H106.651V0H103.438V12H106.651V7.39585H113.223V12H116.438V0H113.223Z" fill="#221E1F"/>
<path fill-rule="evenodd" clip-rule="evenodd" d="M26.4375 0H15.4375V2.2799H19.351V12H22.503V2.2799H26.4375V0Z" fill="#221E1F"/>
<path fill-rule="evenodd" clip-rule="evenodd" d="M33.5946 10.1328C29.9298 10.1758 28.9915 8.01503 28.9915 6.17931C28.9915 4.3635 30.5622 2.2248 33.5946 2.2248C36.6271 2.2248 38.0232 4.3635 38.0232 6.17931C38.0232 8.01503 36.7805 10.1113 33.5946 10.1328ZM33.5947 0.0205688C27.4865 0.0205688 25.6543 3.75911 25.6543 6.2008C25.6543 8.64196 27.007 12.3365 33.5947 12.3805C39.7903 12.4445 41.3177 8.64196 41.3177 6.2008C41.3177 3.78008 39.5723 0.0205688 33.5947 0.0205688Z" fill="#221E1F"/>
<path fill-rule="evenodd" clip-rule="evenodd" d="M7.61286 2.31108C9.33653 2.31108 11.6926 3.06749 11.9541 5.03322H15.4448C14.9431 1.01423 10.449 0.0848389 7.48161 0.0848389C3.70773 0.0848389 0 1.9431 0 6.32954C0 10.6725 4.05701 12.3368 7.48161 12.3368C11.3873 12.3368 15.2919 10.629 15.2919 7.17244H12.0636C11.736 9.52764 9.22804 10.2191 7.61286 10.2191C4.44917 10.2191 3.22825 7.75535 3.22825 6.15708C3.22825 4.55777 4.4497 2.31108 7.61286 2.31108" fill="#221E1F"/>
<path fill-rule="evenodd" clip-rule="evenodd" d="M72.3386 12.2285V0.17157H67.7577L64.485 7.6476L61.0598 0.17157H56.4567V12.228L50.3923 4.92547L56.0206 0.17157H51.9197L45.2441 5.59539V0.17157H41.9062V12.2285H45.2441V9.09542L47.7743 7.02119L52.1377 12.2285H56.4567H56.4572H59.7728V3.80213H59.795L63.5472 12.2285H65.2926L68.9786 3.69362H69.022V12.2285H72.3386Z" fill="#221E1F"/>
<path fill-rule="evenodd" clip-rule="evenodd" d="M77.574 7.56117L79.712 3.11025L82.0025 7.56117H77.574ZM78.3588 0.171631L72.3384 12.2291H75.3491L76.352 10.0894H83.3335L84.4237 12.2291H88.1325L81.8713 0.171631H78.3588Z" fill="#221E1F"/>
</svg>
